<svg width="46" height="46" viewBox="0 0 46 46" fill="none" xmlns="http://www.w3.org/2000/svg">
<g clip-path="url(#clip0_39_178)">
<path d="M23 46C35.7025 46 46 35.7025 46 23C46 10.2975 35.7025 0 23 0C10.2975 0 0 10.2975 0 23C0 35.7025 10.2975 46 23 46Z" fill="#E0E0E0"/>
<path d="M16.2495 12.5782C17.2412 12.5782 18.1465 12.6666 18.9653 12.8414C19.7841 13.0162 20.4833 13.3032 21.0666 13.7025C21.6499 14.1018 22.1025 14.6317 22.4245 15.2941C22.7465 15.9565 22.9066 16.7734 22.9066 17.7468C22.9066 18.7974 22.6674 19.6733 22.1908 20.3743C21.7143 21.0754 21.0077 21.6494 20.0748 22.0966C21.3591 22.4664 22.3178 23.1141 22.9508 24.0378C23.5837 24.9614 23.9002 26.0765 23.9002 27.381C23.9002 28.4317 23.6959 29.3425 23.2875 30.1116C22.879 30.8807 22.3288 31.5082 21.637 31.9939C20.9452 32.4815 20.1576 32.8403 19.2726 33.074C18.382 33.3077 17.4639 33.4254 16.5439 33.4236H6.44043V12.5782H16.2495ZM15.6662 21.0146C16.4832 21.0146 17.1548 20.8196 17.681 20.4314C18.2072 20.0413 18.4704 19.4102 18.4685 18.5343C18.4685 18.0486 18.3802 17.6493 18.2054 17.3383C18.0306 17.0274 17.7969 16.7826 17.5043 16.6078C17.2118 16.433 16.8769 16.3116 16.4979 16.2435C16.1078 16.1754 15.7122 16.1405 15.3147 16.1423H11.0257V21.0183L15.6662 21.0146ZM15.9293 29.8595C16.3617 29.8614 16.7923 29.8172 17.2136 29.7289C17.6221 29.6406 17.9827 29.4952 18.2937 29.291C18.6047 29.0867 18.8531 28.8089 19.0389 28.4593C19.2229 28.1097 19.3168 27.6607 19.3168 27.1161C19.3168 26.047 19.015 25.2816 18.4115 24.8253C17.8079 24.3671 17.0094 24.139 16.0176 24.139H11.0257V29.8614L15.9293 29.8595ZM29.6668 29.4216C30.2887 30.0251 31.1848 30.3269 32.3532 30.3269C33.1904 30.3269 33.9098 30.1171 34.5133 29.6994C35.1168 29.2818 35.4867 28.8383 35.6228 28.371H39.2716C38.6883 30.1815 37.7922 31.475 36.5852 32.2534C35.3781 33.0317 33.919 33.4218 32.206 33.4218C31.0192 33.4218 29.9483 33.2322 28.9952 32.8532C28.042 32.4742 27.2343 31.9332 26.5719 31.2322C25.9095 30.5311 25.398 29.6958 25.0392 28.7224C24.6804 27.749 24.5 26.6782 24.5 25.5116C24.5 24.3837 24.684 23.333 25.0539 22.3597C25.4237 21.3863 25.95 20.5454 26.6308 19.8352C27.3116 19.125 28.1248 18.5656 29.0688 18.1571C30.0127 17.7486 31.0596 17.5444 32.2078 17.5444C33.4921 17.5444 34.6108 17.7928 35.5658 18.2896C36.5189 18.7864 37.3028 19.4525 37.9155 20.2897C38.5282 21.1269 38.9716 22.08 39.2439 23.1509C39.5163 24.2218 39.6138 25.3405 39.5365 26.5089H28.6474C28.7044 27.8466 29.0448 28.8199 29.6668 29.4216ZM34.3532 21.482C33.8564 20.9374 33.102 20.665 32.09 20.665C31.4276 20.665 30.8775 20.7773 30.4414 20.9999C30.0035 21.2244 29.6539 21.5004 29.3908 21.8316C29.1276 22.1628 28.9436 22.5124 28.8369 22.8822C28.7302 23.2521 28.6658 23.5833 28.6474 23.874H35.391C35.1941 22.8252 34.8482 22.0266 34.3532 21.482ZM27.9372 13.6362H36.3625V15.973H27.9372V13.6362Z" fill="white"/>
</g>
<defs>
<clipPath id="clip0_39_178">
<rect width="46" height="46" fill="white"/>
</clipPath>
</defs>
</svg>
