<svg width="36" height="37" viewBox="0 0 36 37" fill="none" xmlns="http://www.w3.org/2000/svg">
<g clip-path="url(#clip0_49_357)">
<path d="M12.7167 9.89453C13.4928 9.89453 14.2013 9.96365 14.8421 10.1005C15.4829 10.2373 16.0301 10.4619 16.4866 10.7744C16.9431 11.0869 17.2973 11.5016 17.5493 12.02C17.8013 12.5384 17.9266 13.1777 17.9266 13.9395C17.9266 14.7617 17.7394 15.4472 17.3664 15.9958C16.9935 16.5445 16.4405 16.9937 15.7104 17.3437C16.7156 17.6331 17.4658 18.14 17.9612 18.8629C18.4565 19.5857 18.7042 20.4584 18.7042 21.4793C18.7042 22.3016 18.5444 23.0144 18.2247 23.6163C17.905 24.2182 17.4744 24.7093 16.933 25.0894C16.3916 25.471 15.7752 25.7518 15.0826 25.9347C14.3856 26.1176 13.6671 26.2097 12.9471 26.2083H5.04004V9.89453H12.7167ZM12.2602 16.4969C12.8996 16.4969 13.4252 16.3443 13.837 16.0405C14.2488 15.7352 14.4548 15.2413 14.4533 14.5558C14.4533 14.1757 14.3842 13.8632 14.2474 13.6198C14.1106 13.3765 13.9277 13.1849 13.6988 13.0481C13.4698 12.9113 13.2077 12.8163 12.9111 12.763C12.6058 12.7097 12.2962 12.6824 11.9852 12.6838H8.62852V16.4998L12.2602 16.4969ZM12.4661 23.419C12.8045 23.4205 13.1415 23.3859 13.4712 23.3168C13.7909 23.2477 14.0732 23.1339 14.3165 22.9741C14.5599 22.8142 14.7543 22.5968 14.8997 22.3232C15.0437 22.0496 15.1172 21.6982 15.1172 21.272C15.1172 20.4353 14.881 19.8363 14.4087 19.4792C13.9364 19.1206 13.3114 18.9421 12.5352 18.9421H8.62852V23.4205L12.4661 23.419ZM23.2172 23.0763C23.7039 23.5486 24.4052 23.7848 25.3196 23.7848C25.9748 23.7848 26.5378 23.6206 27.0101 23.2937C27.4824 22.9669 27.7719 22.6198 27.8784 22.2541H30.734C30.2775 23.671 29.5762 24.6833 28.6316 25.2925C27.6869 25.9016 26.545 26.2069 25.2044 26.2069C24.2756 26.2069 23.4375 26.0585 22.6916 25.7619C21.9456 25.4653 21.3135 25.0419 20.7951 24.4933C20.2767 23.9446 19.8764 23.2909 19.5956 22.5291C19.3148 21.7673 19.1736 20.9293 19.1736 20.0163C19.1736 19.1336 19.3176 18.3113 19.6071 17.5496C19.8965 16.7878 20.3084 16.1297 20.8412 15.5739C21.374 15.0181 22.0104 14.5803 22.7492 14.2606C23.4879 13.9409 24.3072 13.7811 25.2058 13.7811C26.2109 13.7811 27.0864 13.9755 27.8338 14.3643C28.5797 14.7531 29.1932 15.2744 29.6727 15.9296C30.1522 16.5848 30.4992 17.3307 30.7124 18.1688C30.9255 19.0069 31.0018 19.8824 30.9413 20.7968H22.4194C22.464 21.8437 22.7304 22.6054 23.2172 23.0763ZM26.8848 16.8627C26.496 16.4365 25.9056 16.2233 25.1136 16.2233C24.5952 16.2233 24.1647 16.3112 23.8234 16.4854C23.4807 16.6611 23.2071 16.8771 23.0012 17.1363C22.7952 17.3955 22.6512 17.6691 22.5677 17.9585C22.4842 18.248 22.4338 18.5072 22.4194 18.7347H27.697C27.5429 17.9139 27.2722 17.2889 26.8848 16.8627ZM21.8636 10.7225H28.4573V12.5513H21.8636V10.7225Z" fill="white"/>
</g>
<defs>
<clipPath id="clip0_49_357">
<rect width="36" height="36" fill="white" transform="translate(0 0.0507812)"/>
</clipPath>
</defs>
</svg>
