<svg width="36" height="37" viewBox="0 0 36 37" fill="none" xmlns="http://www.w3.org/2000/svg">
<g clip-path="url(#clip0_49_360)">
<path d="M18 3.96387C10.2202 3.96387 3.91309 10.2709 3.91309 18.0508C3.91309 25.8307 10.2202 32.1378 18 32.1378C25.7799 32.1378 32.087 25.8307 32.087 18.0508C32.087 10.2709 25.7803 3.96387 18 3.96387ZM29.3922 17.038C26.8684 16.9435 24.3416 17.1112 21.8525 17.5384C21.562 16.8423 21.2669 16.1751 20.9671 15.537C21.1534 15.45 21.3383 15.3609 21.5193 15.2704C23.7278 14.1575 25.5633 12.7179 26.9907 10.9799C28.3675 12.7203 29.2025 14.8269 29.3922 17.038ZM25.1101 9.09117C23.776 10.7912 22.0019 12.1524 19.7877 13.1746C19.539 12.7066 19.2946 12.2611 19.0566 11.8431C18.0734 10.108 16.9905 8.43147 15.8134 6.82176C16.5341 6.68341 17.2662 6.61384 18 6.61398C20.5829 6.60682 23.0909 7.48064 25.1101 9.09117ZM9.91307 9.9635C10.8507 9.02322 11.945 8.25338 13.1467 7.68846C13.9796 8.76998 15.3503 10.6784 16.7889 13.2144C16.953 13.5043 17.1214 13.8085 17.2915 14.1241C16.1262 14.4801 14.9377 14.7551 13.7345 14.9471C10.8897 15.4095 8.32688 15.3961 6.88755 15.3303C7.38259 13.2969 8.42958 11.4397 9.91307 9.9635ZM6.56319 18.0508C6.56319 18.0237 6.56319 17.9966 6.56319 17.9698C7.05166 17.9955 7.67395 18.017 8.39872 18.017C10.3046 18.0189 12.2076 17.8707 14.0902 17.5736C15.5854 17.3386 17.0594 16.9844 18.498 16.5143C18.7403 17.0278 18.981 17.5624 19.22 18.1181C17.4637 18.5907 15.8511 19.2098 14.4047 19.9663C12.0578 21.195 10.1462 22.7918 8.70688 24.7206C7.3069 22.779 6.55659 20.4445 6.56319 18.0508ZM10.5375 26.7185C12.5498 23.7712 15.794 21.7177 20.2032 20.5977C21.0876 23.0277 21.844 25.7479 22.2811 28.6625C20.3333 29.4444 18.2083 29.6765 16.1376 29.3337C14.0669 28.9909 12.1301 28.0863 10.5382 26.7185H10.5375ZM26.0874 26.1381C25.6692 26.556 25.2199 26.9413 24.7431 27.2908C24.2906 24.702 23.6098 22.2737 22.8262 20.0628C24.9743 19.7327 27.1489 19.6076 29.3207 19.6891C28.973 22.1333 27.8379 24.3974 26.0874 26.1381Z" fill="white"/>
</g>
<defs>
<clipPath id="clip0_49_360">
<rect width="36" height="36" fill="white" transform="translate(0 0.0507812)"/>
</clipPath>
</defs>
</svg>
