<svg width="46" height="46" viewBox="0 0 46 46" fill="none" xmlns="http://www.w3.org/2000/svg">
<g clip-path="url(#clip0_39_185)">
<path d="M23 46C35.7025 46 46 35.7025 46 23C46 10.2975 35.7025 0 23 0C10.2975 0 0 10.2975 0 23C0 35.7025 10.2975 46 23 46Z" fill="#E0E0E0"/>
<path d="M23 5C13.0591 5 5 13.0591 5 23C5 32.941 13.0591 41 23 41C32.941 41 41 32.941 41 23C41 13.0591 32.9414 5 23 5ZM37.5566 21.7058C34.3318 21.585 31.1031 21.7993 27.9226 22.3453C27.5515 21.4558 27.1744 20.6033 26.7913 19.7879C27.0293 19.6768 27.2656 19.5629 27.4969 19.4473C30.3188 18.0252 32.6642 16.1857 34.4881 13.9649C36.2472 16.1888 37.3143 18.8806 37.5566 21.7058ZM32.0851 11.5515C30.3805 13.7239 28.1135 15.4631 25.2842 16.7693C24.9665 16.1712 24.6542 15.602 24.35 15.0679C23.0937 12.8509 21.7101 10.7086 20.206 8.65175C21.1268 8.47497 22.0623 8.38607 23 8.38625C26.3003 8.3771 29.505 9.49365 32.0851 11.5515ZM12.6666 12.6662C13.8648 11.4647 15.263 10.481 16.7986 9.7592C17.8628 11.1412 19.6142 13.5797 21.4524 16.8201C21.6621 17.1905 21.8773 17.5793 22.0946 17.9825C20.6056 18.4374 19.087 18.7888 17.5496 19.0342C13.9145 19.625 10.6399 19.6079 8.8007 19.5238C9.43325 16.9255 10.7711 14.5524 12.6666 12.6662ZM8.38625 23C8.38625 22.9654 8.38625 22.9307 8.38625 22.8965C9.0104 22.9294 9.80555 22.9568 10.7316 22.9568C13.1669 22.9592 15.5986 22.7698 18.0041 22.3903C19.9146 22.09 21.798 21.6373 23.6363 21.0366C23.9459 21.6928 24.2534 22.3759 24.5588 23.086C22.3147 23.6899 20.2541 24.481 18.406 25.4476C15.4072 27.0176 12.9645 29.0579 11.1254 31.5226C9.33654 29.0416 8.3778 26.0586 8.38625 23ZM13.4645 34.0754C16.0358 30.3094 20.1812 27.6854 25.8152 26.2544C26.9452 29.3594 27.9118 32.8352 28.4702 36.5594C25.9814 37.5584 23.2661 37.8551 20.6202 37.4171C17.9744 36.979 15.4995 35.8232 13.4654 34.0754H13.4645ZM33.3338 33.3338C32.7995 33.8677 32.2253 34.3601 31.6162 34.8067C31.0379 31.4987 30.1681 28.396 29.1668 25.5709C31.9116 25.1491 34.6902 24.9892 37.4653 25.0934C37.021 28.2164 35.5706 31.1095 33.3338 33.3338Z" fill="white"/>
</g>
<defs>
<clipPath id="clip0_39_185">
<rect width="46" height="46" fill="white"/>
</clipPath>
</defs>
</svg>
