<svg width="36" height="37" viewBox="0 0 36 37" fill="none" xmlns="http://www.w3.org/2000/svg">
<g clip-path="url(#clip0_49_353)">
<path fill-rule="evenodd" clip-rule="evenodd" d="M29.5 28.5508H24.9797V20.8517C24.9797 18.7408 24.1776 17.5612 22.5068 17.5612C20.6893 17.5612 19.7396 18.7888 19.7396 20.8517V28.5508H15.3833V13.8841H19.7396V15.8597C19.7396 15.8597 21.0495 13.436 24.1618 13.436C27.2728 13.436 29.5 15.3357 29.5 19.2648V28.5508ZM10.1863 11.9636C8.70241 11.9636 7.5 10.7518 7.5 9.25721C7.5 7.76262 8.70241 6.55078 10.1863 6.55078C11.6701 6.55078 12.8718 7.76262 12.8718 9.25721C12.8718 10.7518 11.6701 11.9636 10.1863 11.9636ZM7.93685 28.5508H12.4794V13.8841H7.93685V28.5508Z" fill="white"/>
</g>
<defs>
<clipPath id="clip0_49_353">
<rect width="36" height="36" fill="white" transform="translate(0 0.0507812)"/>
</clipPath>
</defs>
</svg>
