<svg width="46" height="46" viewBox="0 0 46 46" fill="none" xmlns="http://www.w3.org/2000/svg">
<g clip-path="url(#clip0_39_181)">
<path fill-rule="evenodd" clip-rule="evenodd" d="M23 46C35.7025 46 46 35.7025 46 23C46 10.2975 35.7025 0 23 0C10.2975 0 0 10.2975 0 23C0 35.7025 10.2975 46 23 46Z" fill="#E0E0E0"/>
<path fill-rule="evenodd" clip-rule="evenodd" d="M37.6941 36.4167H31.9182V26.5789C31.9182 23.8817 30.8933 22.3744 28.7584 22.3744C26.4359 22.3744 25.2226 23.943 25.2226 26.5789V36.4167H19.6562V17.6759H25.2226V20.2003C25.2226 20.2003 26.8962 17.1034 30.8731 17.1034C34.8482 17.1034 37.6941 19.5308 37.6941 24.5512V36.4167ZM13.0155 15.222C11.1194 15.222 9.58301 13.6735 9.58301 11.7638C9.58301 9.85402 11.1194 8.30556 13.0155 8.30556C14.9115 8.30556 16.447 9.85402 16.447 11.7638C16.447 13.6735 14.9115 15.222 13.0155 15.222ZM10.1412 36.4167H15.9455V17.6759H10.1412V36.4167Z" fill="white"/>
</g>
<defs>
<clipPath id="clip0_39_181">
<rect width="46" height="46" fill="white"/>
</clipPath>
</defs>
</svg>
